<?xml version="1.0" encoding="utf-8"?>
<!-- Generator: Adobe Illustrator 25.1.0, SVG Export Plug-In . SVG Version: 6.00 Build 0)  -->
<svg version="1.1" id="Warstwa_1" xmlns="http://www.w3.org/2000/svg" xmlns:xlink="http://www.w3.org/1999/xlink" x="0px" y="0px"
	 viewBox="0 0 150 150" style="enable-background:new 0 0 150 150;" xml:space="preserve">
<style type="text/css">
	.st0{fill:#878787;}
</style>
<g>
	<path class="st0" d="M80,109.5H69.8c-0.8,0-1.4,0.6-1.4,1.4s0.6,1.4,1.4,1.4H80c0.8,0,1.4-0.6,1.4-1.4S80.8,109.5,80,109.5z"/>
	<path class="st0" d="M91.1,32.7H58.7c-4,0-7.3,3.3-7.3,7.3v70.8c0,4,3.3,7.3,7.3,7.3h32.5h0c4,0,7.3-3.3,7.3-7.3V40
		C98.4,36,95.2,32.7,91.1,32.7z M54.4,47h41v56.8h-41V47z M58.7,35.7h32.5c2.4,0,4.3,1.9,4.3,4.3v4.1h-41V40
		C54.4,37.7,56.3,35.7,58.7,35.7z M91.1,115.1H58.7c-2.4,0-4.3-1.9-4.3-4.3v-4.1h41v4.1C95.4,113.1,93.5,115,91.1,115.1z"/>
	<path class="st0" d="M74.9,42C74.9,42,74.9,42,74.9,42c1.2,0,2.1-0.9,2.1-2.1s-0.9-2.1-2.1-2.1s-2.1,0.9-2.1,2.1S73.8,42,74.9,42z"
		/>
</g>
</svg>
