<?xml version="1.0" encoding="utf-8"?>
<!-- Generator: Adobe Illustrator 25.1.0, SVG Export Plug-In . SVG Version: 6.00 Build 0)  -->
<svg version="1.1" id="Warstwa_1" xmlns="http://www.w3.org/2000/svg" xmlns:xlink="http://www.w3.org/1999/xlink" x="0px" y="0px"
	 viewBox="0 0 150 150" style="enable-background:new 0 0 150 150;" xml:space="preserve">
<style type="text/css">
	.st0{fill:#878787;}
</style>
<g>
	<path class="st0" d="M121.4,77H27.6C25.1,77,23,79,23,81.6v29.2c0,2.6,2.1,4.6,4.6,4.6h93.7c2.6,0,4.6-2.1,4.6-4.6V81.6
		C126,79,123.9,77,121.4,77z M123,110.7c0,0.9-0.7,1.6-1.6,1.6H27.6c-0.9,0-1.6-0.7-1.6-1.6V81.6c0-0.9,0.7-1.6,1.6-1.6h93.8
		c0.9,0,1.6,0.7,1.6,1.6V110.7z"/>
	<path class="st0" d="M90.7,102.1H58.3c-0.8,0-1.4,0.6-1.4,1.4s0.6,1.4,1.4,1.4h32.4c0.8,0,1.4-0.6,1.4-1.4S91.5,102.1,90.7,102.1z"
		/>
	<path class="st0" d="M90.7,87.3H58.3c-0.8,0-1.5,0.7-1.5,1.5v9.5c0,0.8,0.7,1.5,1.5,1.5h32.4c0.8,0,1.5-0.7,1.5-1.5v-9.5
		C92.2,88,91.5,87.3,90.7,87.3z M89.2,96.9H59.8v-6.5h29.5V96.9z"/>
	<path class="st0" d="M41.8,86.5c-5.4,0-9.7,4.4-9.7,9.7s4.4,9.7,9.7,9.7s9.7-4.4,9.7-9.7S47.2,86.5,41.8,86.5z M41.8,102.9
		c-3.7,0-6.7-3-6.7-6.7s3-6.7,6.7-6.7s6.7,3,6.7,6.7S45.5,102.9,41.8,102.9z"/>
	<path class="st0" d="M107.2,86.5L107.2,86.5c-5.4,0-9.7,4.4-9.7,9.7c0,5.4,4.4,9.7,9.7,9.7c5.4,0,9.7-4.4,9.7-9.7
		c0-2.6-1-5-2.8-6.9C112.2,87.5,109.8,86.5,107.2,86.5z M107.2,102.9c-3.7,0-6.7-3-6.7-6.7c0-3.7,3-6.7,6.7-6.7h0
		c1.8,0,3.5,0.7,4.7,2c1.3,1.3,2,3,2,4.7C113.9,99.9,110.9,102.9,107.2,102.9z"/>
	<path class="st0" d="M84.9,65.2c4,0,7.2-2.3,7.2-5.2h0V48.7l18.6-4.6v6.3c-1.2-0.6-2.6-0.9-4.2-0.9c-4,0-7.2,2.3-7.2,5.2
		s3.1,5.2,7.2,5.2c4,0,7.1-2.2,7.2-5.1h0v0c0,0,0,0,0-0.1s0,0,0-0.1V35.1c0-0.5-0.2-0.9-0.6-1.2c-0.4-0.3-0.8-0.4-1.3-0.3L90.2,39
		c-0.7,0.2-1.1,0.8-1.1,1.5v15.4c-1.2-0.6-2.6-0.9-4.2-0.9c-4,0-7.2,2.3-7.2,5.2C77.7,63,80.9,65.2,84.9,65.2z M106.4,56.9
		c-2.4,0-4.2-1.2-4.2-2.2s1.8-2.2,4.2-2.2c2.4,0,4.1,1.1,4.2,2.2v0C110.6,55.7,108.8,56.9,106.4,56.9z M110.6,37v4L92,45.6v-4
		L110.6,37z M84.9,57.9c2.4,0,4.2,1.2,4.2,2.2c0,1-1.8,2.2-4.2,2.2c-2.4,0-4.2-1.2-4.2-2.2C80.7,59,82.5,57.9,84.9,57.9z"/>
	<path class="st0" d="M50.3,75c3.2,0,5.7-1.9,5.7-4.2c0,0,0,0,0,0v-8.1l13.1-3.2V63c-0.8-0.3-1.7-0.5-2.7-0.5
		c-3.2,0-5.7,1.9-5.7,4.2s2.5,4.2,5.7,4.2c3.2,0,5.7-1.8,5.7-4.2h0v0c0,0,0,0,0,0s0,0,0,0V52.2c0-0.5-0.2-0.9-0.6-1.2
		c-0.4-0.3-0.8-0.4-1.3-0.3l-16.1,4c-0.7,0.2-1.1,0.8-1.1,1.5V67c-0.8-0.3-1.7-0.5-2.7-0.5c-3.2,0-5.7,1.9-5.7,4.2S47.1,75,50.3,75z
		 M66.4,68c-1.7,0-2.7-0.8-2.7-1.2s1-1.2,2.7-1.2c1.7,0,2.7,0.8,2.7,1.2v0C69.1,67.2,68,68,66.4,68z M69.1,54.1v2.2L56,59.5v-2.2
		L69.1,54.1z M50.3,69.5c1.7,0,2.7,0.8,2.7,1.2v0h0c0,0.4-1,1.2-2.7,1.2c-1.7,0-2.7-0.8-2.7-1.2S48.6,69.5,50.3,69.5z"/>
</g>
</svg>
