<?xml version="1.0" encoding="utf-8"?>
<!-- Generator: Adobe Illustrator 25.1.0, SVG Export Plug-In . SVG Version: 6.00 Build 0)  -->
<svg version="1.1" id="Warstwa_1" xmlns="http://www.w3.org/2000/svg" xmlns:xlink="http://www.w3.org/1999/xlink" x="0px" y="0px"
	 viewBox="0 0 150 150" style="enable-background:new 0 0 150 150;" xml:space="preserve">
<style type="text/css">
	.st0{fill:#878787;}
</style>
<g>
	<path class="st0" d="M115.5,44.2H95.4l13.4-12.5c0.6-0.5,0.6-1.4,0.1-2c-0.5-0.6-1.4-0.6-2-0.1L91.7,43.8l-10.9-9.9
		c-0.6-0.5-1.5-0.5-2,0.1c-0.5,0.6-0.5,1.5,0.1,2l9.1,8.3H34.3c-6,0-10.9,4.9-10.9,10.9v45.8c0,6,4.9,10.9,10.9,10.9h30.9l-2.1,6.9
		H41.5c-0.8,0-1.4,0.6-1.4,1.4s0.6,1.4,1.4,1.4H107c0.8,0,1.4-0.6,1.4-1.4s-0.6-1.4-1.4-1.4H86.8l-2.1-6.9h30.9
		c6,0,10.9-4.9,10.9-10.9V55.1C126.4,49.1,121.5,44.2,115.5,44.2z M83.8,118.7H66l2.1-6.9h13.6L83.8,118.7z M123.4,100.9
		c0,4.3-3.5,7.9-7.9,7.9H34.3c-4.3,0-7.9-3.5-7.9-7.9V55.1c0-4.3,3.5-7.9,7.9-7.9h81.2c4.3,0,7.9,3.5,7.9,7.9V100.9z"/>
	<path class="st0" d="M72.1,63.7H50.6c-0.8,0-1.4,0.6-1.4,1.4s0.6,1.4,1.4,1.4h9.3c0,0,0,0,0,0v24.4c0,0.8,0.6,1.4,1.4,1.4
		s1.4-0.6,1.4-1.4V66.5c0,0,0,0,0,0h9.4c0.8,0,1.4-0.6,1.4-1.4S72.9,63.7,72.1,63.7z"/>
	<path class="st0" d="M99.8,63.8c-0.7-0.3-1.5,0.1-1.8,0.8l-9.2,22.6l-9.2-22.6c-0.3-0.7-1.1-1.1-1.8-0.8c-0.7,0.3-1.1,1.1-0.8,1.8
		l10.5,25.8c0.1,0.4,0.4,0.7,0.8,0.8c0.2,0.1,0.4,0.1,0.5,0.1c0,0,0,0,0,0c0.2,0,0.4,0,0.5-0.1c0.4-0.2,0.7-0.5,0.8-0.8l10.5-25.8
		C100.9,64.9,100.5,64.1,99.8,63.8z"/>
</g>
</svg>
