<?xml version="1.0" encoding="utf-8"?>
<!-- Generator: Adobe Illustrator 25.1.0, SVG Export Plug-In . SVG Version: 6.00 Build 0)  -->
<svg version="1.1" id="Warstwa_1" xmlns="http://www.w3.org/2000/svg" xmlns:xlink="http://www.w3.org/1999/xlink" x="0px" y="0px"
	 viewBox="0 0 150 150" style="enable-background:new 0 0 150 150;" xml:space="preserve">
<style type="text/css">
	.st0{fill:#868787;}
</style>
<g>
	<path class="st0" d="M109.8,49.4h-4.5c-2.7,0-2.7-0.2-3.3-3.1c-0.4-2.3-1.4-7.6-7.4-7.6H76.8c-6,0-7,5.3-7.4,7.6
		c-0.6,2.9-0.6,3.1-3.3,3.1H53.9c-0.6-1.6-2.1-2.7-3.9-2.7h-7.1c-1.8,0-3.3,1.2-3.9,2.8c-4.7,0.6-8.3,4.6-8.3,9.4v42.8
		c0,5.2,4.3,9.5,9.5,9.5h69.6c5.2,0,9.5-4.3,9.5-9.5V58.9C119.3,53.7,115,49.4,109.8,49.4z M33.7,101.7V59c0-3.6,2.9-6.5,6.5-6.5
		h13.5v55.9H40.2C36.6,108.3,33.7,105.3,33.7,101.7z M116.3,101.7c0,3.6-2.9,6.5-6.5,6.5H56.5V52.4h9.6c5.2,0,5.7-2.6,6.2-5.6
		c0.5-2.7,1.2-5.1,4.5-5.1h17.8c3.2,0,4,2.4,4.5,5.1c0.6,3,1.1,5.6,6.2,5.6h4.5c3.6,0,6.5,2.9,6.5,6.5V101.7z"/>
	<path class="st0" d="M85.7,59.6L85.7,59.6C85.7,59.6,85.7,59.6,85.7,59.6c-11.4,0-20.8,9.3-20.8,20.7c0,5.5,2.2,10.8,6.1,14.7
		c3.9,3.9,9.1,6.1,14.7,6.1c0,0,0,0,0,0c5.5,0,10.7-2.2,14.7-6.1c3.9-3.9,6.1-9.1,6.1-14.7C106.4,68.9,97.1,59.6,85.7,59.6z
		 M98.2,92.9c-3.4,3.4-7.8,5.2-12.5,5.2c0,0,0,0,0,0c-4.7,0-9.2-1.8-12.5-5.2s-5.2-7.8-5.2-12.6c0-9.8,8-17.7,17.7-17.7h0
		c9.8,0,17.7,8,17.7,17.8C103.4,85.1,101.6,89.6,98.2,92.9z"/>
	<path class="st0" d="M85.7,68.2c-6.7,0-12.2,5.5-12.2,12.2c0,3.3,1.3,6.3,3.6,8.6s5.4,3.6,8.6,3.6c0,0,0,0,0,0h0
		c6.7,0,12.2-5.5,12.2-12.2C97.9,73.6,92.4,68.2,85.7,68.2z M85.7,89.6c-2.5,0-4.8-1-6.5-2.7c-1.7-1.7-2.7-4-2.7-6.5
		c0-5.1,4.1-9.2,9.2-9.2c5.1,0,9.2,4.1,9.2,9.2C94.9,85.4,90.8,89.5,85.7,89.6z"/>
	<path class="st0" d="M80.6,52.4h10.2c1.3,0,2.4-1.1,2.4-2.4s-1.1-2.4-2.4-2.4H80.6c-1.3,0-2.4,1.1-2.4,2.4S79.3,52.4,80.6,52.4z"/>
</g>
</svg>
