<?xml version="1.0" encoding="utf-8"?>
<!-- Generator: Adobe Illustrator 25.1.0, SVG Export Plug-In . SVG Version: 6.00 Build 0)  -->
<svg version="1.1" id="Warstwa_1" xmlns="http://www.w3.org/2000/svg" xmlns:xlink="http://www.w3.org/1999/xlink" x="0px" y="0px"
	 viewBox="0 0 150 150" style="enable-background:new 0 0 150 150;" xml:space="preserve">
<style type="text/css">
	.st0{fill:#878787;}
</style>
<g>
	<path class="st0" d="M93.4,66.7c-1.8-4.9-5.5-8.8-10.2-11c-4.8-2.2-10.1-2.4-15-0.5c-4.9,1.8-8.8,5.5-11,10.2
		c-2.2,4.8-2.4,10.1-0.5,15c1.7,4.6,5,8.3,9.4,10.6v6.6c0,0.8,0.7,1.5,1.5,1.5h15c0.8,0,1.5-0.7,1.5-1.5V91c3.9-2,7-5.3,8.8-9.3
		C95.1,76.9,95.3,71.6,93.4,66.7z M90.2,80.5c-1.7,3.6-4.6,6.6-8.2,8.2C81.4,89,81,89.5,81,90.1v6H69v-6c0-0.6-0.3-1.1-0.9-1.4
		c-4-1.8-7.1-5.1-8.7-9.3s-1.4-8.7,0.4-12.7s5.1-7.1,9.3-8.7c4.2-1.6,8.7-1.4,12.7,0.4c4,1.8,7.1,5.1,8.7,9.3
		C92.2,71.9,92,76.4,90.2,80.5z"/>
	<path class="st0" d="M51.8,73.6c0-0.8-0.7-1.5-1.5-1.5H42c-0.8,0-1.5,0.7-1.5,1.5s0.7,1.5,1.5,1.5h8.3
		C51.1,75.1,51.8,74.4,51.8,73.6z"/>
	<path class="st0" d="M83.1,101.9H66.9c-0.8,0-1.5,0.7-1.5,1.5s0.7,1.5,1.5,1.5h16.2c0.8,0,1.5-0.7,1.5-1.5S84,101.9,83.1,101.9z"/>
	<path class="st0" d="M80.6,107.3H69.5c-0.8,0-1.5,0.7-1.5,1.5s0.7,1.5,1.5,1.5h11.1c0.8,0,1.5-0.7,1.5-1.5S81.4,107.3,80.6,107.3z"
		/>
	<path class="st0" d="M56.5,57.1c0.3,0.3,0.7,0.4,1.1,0.4s0.8-0.1,1.1-0.4c0.6-0.6,0.6-1.5,0-2.1l-5.9-5.9c-0.6-0.6-1.5-0.6-2.1,0
		c-0.6,0.6-0.6,1.5,0,2.1L56.5,57.1z"/>
	<path class="st0" d="M75,50.3c0.8,0,1.5-0.7,1.5-1.5v-8.3c0-0.8-0.7-1.5-1.5-1.5c-0.8,0-1.5,0.7-1.5,1.5v8.3
		C73.5,49.7,74.2,50.3,75,50.3z"/>
	<path class="st0" d="M92.5,57.6c0.4,0,0.8-0.1,1.1-0.4l5.9-5.9c0.6-0.6,0.6-1.5,0-2.1c-0.6-0.6-1.5-0.6-2.1,0L91.5,55
		c-0.6,0.6-0.6,1.5,0,2.1C91.7,57.4,92.1,57.6,92.5,57.6z"/>
	<path class="st0" d="M108,72.1h-8.3c-0.8,0-1.5,0.7-1.5,1.5s0.7,1.5,1.5,1.5h8.3c0.8,0,1.5-0.7,1.5-1.5S108.9,72.1,108,72.1z"/>
	<path class="st0" d="M56.5,90l-5.9,5.9c-0.6,0.6-0.6,1.5,0,2.1c0.3,0.3,0.7,0.4,1.1,0.4s0.8-0.1,1.1-0.4l5.9-5.9
		c0.6-0.6,0.6-1.5,0-2.1S57.1,89.4,56.5,90z"/>
	<path class="st0" d="M93.6,90c-0.6-0.6-1.5-0.6-2.1,0s-0.6,1.5,0,2.1l5.9,5.9c0.3,0.3,0.7,0.4,1.1,0.4s0.8-0.1,1.1-0.4
		c0.6-0.6,0.6-1.5,0-2.1L93.6,90z"/>
</g>
</svg>
