<?xml version="1.0" encoding="utf-8"?>
<!-- Generator: Adobe Illustrator 25.1.0, SVG Export Plug-In . SVG Version: 6.00 Build 0)  -->
<svg version="1.1" id="Warstwa_1" xmlns="http://www.w3.org/2000/svg" xmlns:xlink="http://www.w3.org/1999/xlink" x="0px" y="0px"
	 viewBox="0 0 150 150" style="enable-background:new 0 0 150 150;" xml:space="preserve">
<style type="text/css">
	.st0{fill:#878787;}
</style>
<g>
	<path class="st0" d="M94.1,42.1l-2.6-15.3c-0.1-0.7-0.7-1.2-1.5-1.2H60c-0.7,0-1.4,0.5-1.5,1.2l-2.6,15.3c-4.2,0.5-7.4,4.1-7.4,8.3
		v48.5c0,4.3,3.2,7.8,7.4,8.3l2.6,15.3c0.1,0.7,0.7,1.2,1.5,1.2h30c0.7,0,1.4-0.5,1.5-1.2l2.6-15.3c4.2-0.5,7.4-4.1,7.4-8.3V50.4
		C101.5,46.1,98.3,42.6,94.1,42.1z M61.3,28.5h27.5L91.1,42H59L61.3,28.5z M88.8,120.8H61.3L59,107.3h32.1L88.8,120.8z M98.5,98.9
		c0,3-2.4,5.4-5.4,5.4H56.9c-3,0-5.4-2.4-5.4-5.4V50.4c0-3,2.4-5.4,5.4-5.4h36.2c3,0,5.4,2.4,5.4,5.4V98.9z"/>
	<path class="st0" d="M83.4,78.6c-2.3,2.6-4.9,5-8.1,7.9l-0.1,0.1c0,0-0.1,0.1-0.1,0.1c0,0-0.1-0.1-0.1-0.1l-0.1-0.1
		c-3.2-2.9-5.7-5.4-8.1-7.9c-0.6-0.6-1.5-0.7-2.1-0.1c-0.6,0.6-0.7,1.5-0.1,2.1c2.4,2.6,5,5.2,8.2,8.1l0.1,0.1
		c0.1,0.1,0.2,0.2,0.3,0.3c0.6,0.5,1.2,0.7,1.9,0.7c0.7,0,1.3-0.2,1.8-0.7c0.1-0.1,0.2-0.2,0.4-0.3l0.1-0.1c3.2-3,5.8-5.5,8.3-8.1
		c0.6-0.6,0.5-1.6-0.1-2.1C84.9,78,83.9,78,83.4,78.6z"/>
	<path class="st0" d="M86.9,60.4c-4.2-1.8-8.1-0.9-11.8,2.8c-3.7-3.6-7.7-4.6-11.8-2.8c-2.5,1.1-4.3,3-5.1,5.3
		c-0.8,2.2-0.6,4.6,0.4,6.7c0.3,0.5,0.8,0.8,1.3,0.8c0.2,0,0.5-0.1,0.7-0.2c0.7-0.4,1-1.3,0.7-2c-0.7-1.4-0.8-3-0.3-4.4
		c0.6-1.6,1.8-2.8,3.5-3.6c3.3-1.5,6.3-0.5,9.5,3.2c0.3,0.3,0.7,0.5,1.1,0.5c0.4,0,0.8-0.2,1.1-0.5c3.2-3.7,6.2-4.7,9.5-3.2
		c1.7,0.8,3,2,3.5,3.6c0.5,1.4,0.4,3-0.3,4.4c-0.4,0.7-0.1,1.6,0.7,2c0.7,0.4,1.6,0.1,2-0.7c1.1-2.1,1.2-4.5,0.4-6.7
		C91.2,63.3,89.3,61.5,86.9,60.4z"/>
	<path class="st0" d="M89.7,74.1h-3.2L83,69.6c-0.3-0.3-0.7-0.6-1.1-0.6c-0.4,0-0.9,0.2-1.2,0.5l-7.8,8.3L70.2,75
		c-0.3-0.3-0.7-0.4-1.1-0.4h-7.9c-0.8,0-1.5,0.7-1.5,1.5s0.7,1.5,1.5,1.5h7.3l3.4,3.5c0.3,0.3,0.7,0.4,1.1,0.4c0,0,0,0,0,0
		c0.4,0,0.8-0.2,1.1-0.5l7.7-8.1l2.9,3.7c0.3,0.4,0.7,0.6,1.2,0.6h3.9c0.8,0,1.5-0.7,1.5-1.5C91.2,74.7,90.6,74.1,89.7,74.1z"/>
</g>
</svg>
